<?xml version="1.0" encoding="utf-8"?>
<svg xmlns="http://www.w3.org/2000/svg" xmlns:xlink="http://www.w3.org/1999/xlink" width="600" height="400" viewBox="0 0 600 400">
<defs>
  <clipPath id="clip7300">
    <rect x="0" y="0" width="600" height="400"/>
  </clipPath>
</defs>
<polygon clip-path="url(#clip7300)" points="
0,400 600,400 600,0 0,0 
  " fill="#ffffff" fill-opacity="1"/>
<defs>
  <clipPath id="clip7301">
    <rect x="120" y="0" width="421" height="400"/>
  </clipPath>
</defs>
<polygon clip-path="url(#clip7300)" points="
55.25,109.202 580.315,109.202 580.315,11.811 55.25,11.811 
  " fill="#ffffff" fill-opacity="1"/>
<defs>
  <clipPath id="clip7302">
    <rect x="55" y="11" width="526" height="98"/>
  </clipPath>
</defs>
<polyline clip-path="url(#clip7302)" style="stroke:#000000; stroke-width:0.5; stroke-opacity:0.1; fill:none" points="
  55.25,109.202 55.25,11.811 
  "/>
<polyline clip-path="url(#clip7302)" style="stroke:#000000; stroke-width:0.5; stroke-opacity:0.1; fill:none" points="
  134.01,109.202 134.01,11.811 
  "/>
<polyline clip-path="url(#clip7302)" style="stroke:#000000; stroke-width:0.5; stroke-opacity:0.1; fill:none" points="
  212.77,109.202 212.77,11.811 
  "/>
<polyline clip-path="url(#clip7302)" style="stroke:#000000; stroke-width:0.5; stroke-opacity:0.1; fill:none" points="
  291.529,109.202 291.529,11.811 
  "/>
<polyline clip-path="url(#clip7302)" style="stroke:#000000; stroke-width:0.5; stroke-opacity:0.1; fill:none" points="
  370.289,109.202 370.289,11.811 
  "/>
<polyline clip-path="url(#clip7302)" style="stroke:#000000; stroke-width:0.5; stroke-opacity:0.1; fill:none" points="
  449.049,109.202 449.049,11.811 
  "/>
<polyline clip-path="url(#clip7302)" style="stroke:#000000; stroke-width:0.5; stroke-opacity:0.1; fill:none" points="
  527.808,109.202 527.808,11.811 
  "/>
<polyline clip-path="url(#clip7302)" style="stroke:#000000; stroke-width:0.5; stroke-opacity:0.1; fill:none" points="
  55.25,103.792 580.315,103.792 
  "/>
<polyline clip-path="url(#clip7302)" style="stroke:#000000; stroke-width:0.5; stroke-opacity:0.1; fill:none" points="
  55.25,82.1497 580.315,82.1497 
  "/>
<polyline clip-path="url(#clip7302)" style="stroke:#000000; stroke-width:0.5; stroke-opacity:0.1; fill:none" points="
  55.25,60.507 580.315,60.507 
  "/>
<polyline clip-path="url(#clip7302)" style="stroke:#000000; stroke-width:0.5; stroke-opacity:0.1; fill:none" points="
  55.25,38.8643 580.315,38.8643 
  "/>
<polyline clip-path="url(#clip7302)" style="stroke:#000000; stroke-width:0.5; stroke-opacity:0.1; fill:none" points="
  55.25,17.2217 580.315,17.2217 
  "/>
<polyline clip-path="url(#clip7300)" style="stroke:#000000; stroke-width:1; stroke-opacity:1; fill:none" points="
  55.25,109.202 580.315,109.202 
  "/>
<polyline clip-path="url(#clip7300)" style="stroke:#000000; stroke-width:1; stroke-opacity:1; fill:none" points="
  55.25,109.202 55.25,11.811 
  "/>
<polyline clip-path="url(#clip7300)" style="stroke:#000000; stroke-width:1; stroke-opacity:1; fill:none" points="
  55.25,109.202 55.25,107.741 
  "/>
<polyline clip-path="url(#clip7300)" style="stroke:#000000; stroke-width:1; stroke-opacity:1; fill:none" points="
  134.01,109.202 134.01,107.741 
  "/>
<polyline clip-path="url(#clip7300)" style="stroke:#000000; stroke-width:1; stroke-opacity:1; fill:none" points="
  212.77,109.202 212.77,107.741 
  "/>
<polyline clip-path="url(#clip7300)" style="stroke:#000000; stroke-width:1; stroke-opacity:1; fill:none" points="
  291.529,109.202 291.529,107.741 
  "/>
<polyline clip-path="url(#clip7300)" style="stroke:#000000; stroke-width:1; stroke-opacity:1; fill:none" points="
  370.289,109.202 370.289,107.741 
  "/>
<polyline clip-path="url(#clip7300)" style="stroke:#000000; stroke-width:1; stroke-opacity:1; fill:none" points="
  449.049,109.202 449.049,107.741 
  "/>
<polyline clip-path="url(#clip7300)" style="stroke:#000000; stroke-width:1; stroke-opacity:1; fill:none" points="
  527.808,109.202 527.808,107.741 
  "/>
<polyline clip-path="url(#clip7300)" style="stroke:#000000; stroke-width:1; stroke-opacity:1; fill:none" points="
  55.25,103.792 63.126,103.792 
  "/>
<polyline clip-path="url(#clip7300)" style="stroke:#000000; stroke-width:1; stroke-opacity:1; fill:none" points="
  55.25,82.1497 63.126,82.1497 
  "/>
<polyline clip-path="url(#clip7300)" style="stroke:#000000; stroke-width:1; stroke-opacity:1; fill:none" points="
  55.25,60.507 63.126,60.507 
  "/>
<polyline clip-path="url(#clip7300)" style="stroke:#000000; stroke-width:1; stroke-opacity:1; fill:none" points="
  55.25,38.8643 63.126,38.8643 
  "/>
<polyline clip-path="url(#clip7300)" style="stroke:#000000; stroke-width:1; stroke-opacity:1; fill:none" points="
  55.25,17.2217 63.126,17.2217 
  "/>
<g clip-path="url(#clip7300)">
<text style="fill:#000000; fill-opacity:1; font-family:Arial,Helvetica Neue,Helvetica,sans-serif; font-size:12; text-anchor:middle;" transform="rotate(0, 55.25, 123.002)" x="55.25" y="123.002">0.000</text>
</g>
<g clip-path="url(#clip7300)">
<text style="fill:#000000; fill-opacity:1; font-family:Arial,Helvetica Neue,Helvetica,sans-serif; font-size:12; text-anchor:middle;" transform="rotate(0, 134.01, 123.002)" x="134.01" y="123.002">0.002</text>
</g>
<g clip-path="url(#clip7300)">
<text style="fill:#000000; fill-opacity:1; font-family:Arial,Helvetica Neue,Helvetica,sans-serif; font-size:12; text-anchor:middle;" transform="rotate(0, 212.77, 123.002)" x="212.77" y="123.002">0.004</text>
</g>
<g clip-path="url(#clip7300)">
<text style="fill:#000000; fill-opacity:1; font-family:Arial,Helvetica Neue,Helvetica,sans-serif; font-size:12; text-anchor:middle;" transform="rotate(0, 291.529, 123.002)" x="291.529" y="123.002">0.006</text>
</g>
<g clip-path="url(#clip7300)">
<text style="fill:#000000; fill-opacity:1; font-family:Arial,Helvetica Neue,Helvetica,sans-serif; font-size:12; text-anchor:middle;" transform="rotate(0, 370.289, 123.002)" x="370.289" y="123.002">0.008</text>
</g>
<g clip-path="url(#clip7300)">
<text style="fill:#000000; fill-opacity:1; font-family:Arial,Helvetica Neue,Helvetica,sans-serif; font-size:12; text-anchor:middle;" transform="rotate(0, 449.049, 123.002)" x="449.049" y="123.002">0.010</text>
</g>
<g clip-path="url(#clip7300)">
<text style="fill:#000000; fill-opacity:1; font-family:Arial,Helvetica Neue,Helvetica,sans-serif; font-size:12; text-anchor:middle;" transform="rotate(0, 527.808, 123.002)" x="527.808" y="123.002">0.012</text>
</g>
<g clip-path="url(#clip7300)">
<text style="fill:#000000; fill-opacity:1; font-family:Arial,Helvetica Neue,Helvetica,sans-serif; font-size:12; text-anchor:end;" transform="rotate(0, 49.25, 108.292)" x="49.25" y="108.292">-4</text>
</g>
<g clip-path="url(#clip7300)">
<text style="fill:#000000; fill-opacity:1; font-family:Arial,Helvetica Neue,Helvetica,sans-serif; font-size:12; text-anchor:end;" transform="rotate(0, 49.25, 86.6497)" x="49.25" y="86.6497">-2</text>
</g>
<g clip-path="url(#clip7300)">
<text style="fill:#000000; fill-opacity:1; font-family:Arial,Helvetica Neue,Helvetica,sans-serif; font-size:12; text-anchor:end;" transform="rotate(0, 49.25, 65.007)" x="49.25" y="65.007">0</text>
</g>
<g clip-path="url(#clip7300)">
<text style="fill:#000000; fill-opacity:1; font-family:Arial,Helvetica Neue,Helvetica,sans-serif; font-size:12; text-anchor:end;" transform="rotate(0, 49.25, 43.3643)" x="49.25" y="43.3643">2</text>
</g>
<g clip-path="url(#clip7300)">
<text style="fill:#000000; fill-opacity:1; font-family:Arial,Helvetica Neue,Helvetica,sans-serif; font-size:12; text-anchor:end;" transform="rotate(0, 49.25, 21.7217)" x="49.25" y="21.7217">4</text>
</g>
<g clip-path="url(#clip7300)">
<text style="fill:#000000; fill-opacity:1; font-family:Arial,Helvetica Neue,Helvetica,sans-serif; font-size:16; text-anchor:middle;" transform="rotate(-90, 14.4, 60.5065)" x="14.4" y="60.5065">Acceleration [g]</text>
</g>
<polyline clip-path="url(#clip7302)" style="stroke:#009af9; stroke-width:1; stroke-opacity:1; fill:none" points="
  55.25,11.811 56.3023,11.8265 57.3545,11.8728 58.4067,11.9499 59.459,12.0579 60.5112,12.1965 61.5635,12.3659 62.6157,12.5657 63.6679,12.7959 64.7202,13.0564 
  65.7724,13.347 66.8246,13.6675 67.8769,14.0177 68.9291,14.3974 69.9813,14.8063 71.0336,15.2442 72.0858,15.7108 73.138,16.2058 74.1903,16.7289 75.2425,17.2798 
  76.2947,17.858 77.347,18.4634 78.3992,19.0954 79.4514,19.7536 80.5037,20.4377 81.5559,21.1472 82.6081,21.8817 83.6604,22.6406 84.7126,23.4236 85.7648,24.2301 
  86.8171,25.0596 87.8693,25.9115 88.9215,26.7855 89.9738,27.6807 91.026,28.5969 92.0782,29.5332 93.1305,30.4892 94.1827,31.4642 95.2349,32.4577 96.2872,33.4689 
  97.3394,34.4973 98.3917,35.5421 99.4439,36.6029 100.496,37.6787 101.548,38.7691 102.601,39.8732 103.653,40.9904 104.705,42.12 105.757,43.2612 106.81,44.4134 
  107.862,45.5758 108.914,46.7477 109.966,47.9282 111.018,49.1168 112.071,50.3126 113.123,51.5148 114.175,52.7228 115.227,53.9357 116.28,55.1527 117.332,56.3732 
  118.384,57.5962 119.436,58.8212 120.489,60.0471 121.541,61.2734 122.593,62.4992 123.645,63.7237 124.698,64.9462 125.75,66.1659 126.802,67.382 127.854,68.5937 
  128.906,69.8003 129.959,71.001 131.011,72.1951 132.063,73.3817 133.115,74.5602 134.168,75.7297 135.22,76.8896 136.272,78.0391 137.324,79.1775 138.377,80.3041 
  139.429,81.4181 140.481,82.5189 141.533,83.6056 142.585,84.6778 143.638,85.7346 144.69,86.7754 145.742,87.7995 146.794,88.8064 147.847,89.7953 148.899,90.7656 
  149.951,91.7167 151.003,92.6481 152.056,93.5591 153.108,94.4491 154.16,95.3175 155.212,96.1639 156.265,96.9877 157.317,97.7884 158.369,98.5654 159.421,99.3183 
  160.473,100.047 161.526,100.75 162.578,101.427 163.63,102.079 164.682,102.704 165.735,103.303 166.787,103.875 167.839,104.418 168.891,104.935 169.944,105.423 
  170.996,105.882 172.048,106.313 173.1,106.714 174.153,107.087 175.205,107.429 176.257,107.742 177.309,108.026 178.361,108.278 179.414,108.501 180.466,108.693 
  181.518,108.855 182.57,108.986 183.623,109.086 184.675,109.156 185.727,109.194 186.779,109.202 187.832,109.179 188.884,109.125 189.936,109.04 190.988,108.924 
  192.041,108.778 193.093,108.601 194.145,108.394 195.197,108.156 196.249,107.888 197.302,107.59 198.354,107.262 199.406,106.904 200.458,106.517 201.511,106.101 
  202.563,105.656 203.615,105.182 204.667,104.68 205.72,104.15 206.772,103.592 207.824,103.007 208.876,102.395 209.928,101.757 210.981,101.092 212.033,100.401 
  213.085,99.6855 214.137,98.9449 215.19,98.1799 216.242,97.391 217.294,96.5787 218.346,95.7435 219.399,94.886 220.451,94.0067 221.503,93.1062 222.555,92.1849 
  223.608,91.2436 224.66,90.2828 225.712,89.3031 226.764,88.3052 227.816,87.2896 228.869,86.257 229.921,85.2081 230.973,84.1436 232.025,83.064 233.078,81.9702 
  234.13,80.8627 235.182,79.7423 236.234,78.6098 237.287,77.4657 238.339,76.3109 239.391,75.1461 240.443,73.972 241.496,72.7893 242.548,71.5989 243.6,70.4014 
  244.652,69.1977 245.704,67.9884 246.757,66.7744 247.809,65.5565 248.861,64.3353 249.913,63.1117 250.966,61.8864 252.018,60.6603 253.07,59.4341 254.122,58.2085 
  255.175,56.9844 256.227,55.7626 257.279,54.5437 258.331,53.3287 259.383,52.1181 260.436,50.9129 261.488,49.7138 262.54,48.5216 263.592,47.3369 264.645,46.1606 
  265.697,44.9934 266.749,43.836 267.801,42.6892 268.854,41.5537 269.906,40.4302 270.958,39.3194 272.01,38.2221 273.063,37.1389 274.115,36.0706 275.167,35.0177 
  276.219,33.981 277.271,32.9611 278.324,31.9587 279.376,30.9744 280.428,30.0088 281.48,29.0625 282.533,28.1362 283.585,27.2305 284.637,26.3458 285.689,25.4828 
  286.742,24.642 287.794,23.8239 288.846,23.0291 289.898,22.2581 290.951,21.5113 292.003,20.7893 293.055,20.0924 294.107,19.4212 295.159,18.7761 296.212,18.1573 
  297.264,17.5655 298.316,17.0009 299.368,16.4639 300.421,15.9548 301.473,15.4739 302.525,15.0216 303.577,14.5982 304.63,14.2039 305.682,13.8389 306.734,13.5035 
  307.786,13.198 308.839,12.9224 309.891,12.677 310.943,12.462 311.995,12.2774 313.047,12.1234 314.1,12.0001 315.152,11.9075 316.204,11.8458 317.256,11.8149 
  318.309,11.8149 319.361,11.8458 320.413,11.9075 321.465,12.0001 322.518,12.1234 323.57,12.2774 324.622,12.462 325.674,12.677 326.726,12.9224 327.779,13.198 
  328.831,13.5035 329.883,13.8389 330.935,14.2039 331.988,14.5982 333.04,15.0216 334.092,15.4739 335.144,15.9548 336.197,16.4639 337.249,17.0009 338.301,17.5655 
  339.353,18.1573 340.406,18.7761 341.458,19.4212 342.51,20.0924 343.562,20.7893 344.614,21.5113 345.667,22.2581 346.719,23.0291 347.771,23.8239 348.823,24.642 
  349.876,25.4828 350.928,26.3458 351.98,27.2305 353.032,28.1362 354.085,29.0625 355.137,30.0088 356.189,30.9744 357.241,31.9587 358.294,32.9611 359.346,33.981 
  360.398,35.0177 361.45,36.0706 362.502,37.1389 363.555,38.2221 364.607,39.3194 365.659,40.4302 366.711,41.5537 367.764,42.6892 368.816,43.836 369.868,44.9934 
  370.92,46.1606 371.973,47.3369 373.025,48.5216 374.077,49.7138 375.129,50.9129 376.182,52.1181 377.234,53.3287 378.286,54.5437 379.338,55.7626 380.39,56.9844 
  381.443,58.2085 382.495,59.4341 383.547,60.6603 384.599,61.8864 385.652,63.1117 386.704,64.3353 387.756,65.5565 388.808,66.7744 389.861,67.9884 390.913,69.1977 
  391.965,70.4014 393.017,71.5989 394.069,72.7893 395.122,73.972 396.174,75.1461 397.226,76.3109 398.278,77.4657 399.331,78.6098 400.383,79.7423 401.435,80.8627 
  402.487,81.9702 403.54,83.064 404.592,84.1436 405.644,85.2081 406.696,86.257 407.749,87.2896 408.801,88.3052 409.853,89.3031 410.905,90.2828 411.957,91.2436 
  413.01,92.1849 414.062,93.1062 415.114,94.0067 416.166,94.886 417.219,95.7435 418.271,96.5787 419.323,97.391 420.375,98.1799 421.428,98.9449 422.48,99.6855 
  423.532,100.401 424.584,101.092 425.637,101.757 426.689,102.395 427.741,103.007 428.793,103.592 429.845,104.15 430.898,104.68 431.95,105.182 433.002,105.656 
  434.054,106.101 435.107,106.517 436.159,106.904 437.211,107.262 438.263,107.59 439.316,107.888 440.368,108.156 441.42,108.394 442.472,108.601 443.525,108.778 
  444.577,108.924 445.629,109.04 446.681,109.125 447.733,109.179 448.786,109.202 449.838,109.194 450.89,109.156 451.942,109.086 452.995,108.986 454.047,108.855 
  455.099,108.693 456.151,108.501 457.204,108.278 458.256,108.026 459.308,107.742 460.36,107.429 461.412,107.087 462.465,106.714 463.517,106.313 464.569,105.882 
  465.621,105.423 466.674,104.935 467.726,104.418 468.778,103.875 469.83,103.303 470.883,102.704 471.935,102.079 472.987,101.427 474.039,100.75 475.092,100.047 
  476.144,99.3183 477.196,98.5654 478.248,97.7884 479.3,96.9877 480.353,96.1639 481.405,95.3175 482.457,94.4491 483.509,93.5591 484.562,92.6481 485.614,91.7167 
  486.666,90.7656 487.718,89.7953 488.771,88.8064 489.823,87.7995 490.875,86.7754 491.927,85.7346 492.98,84.6778 494.032,83.6056 495.084,82.5189 496.136,81.4181 
  497.188,80.3041 498.241,79.1775 499.293,78.0391 500.345,76.8896 501.397,75.7297 502.45,74.5602 503.502,73.3817 504.554,72.1951 505.606,71.001 506.659,69.8003 
  507.711,68.5937 508.763,67.382 509.815,66.1659 510.867,64.9462 511.92,63.7237 512.972,62.4992 514.024,61.2734 515.076,60.0471 516.129,58.8212 517.181,57.5962 
  518.233,56.3732 519.285,55.1527 520.338,53.9357 521.39,52.7228 522.442,51.5148 523.494,50.3126 524.547,49.1168 525.599,47.9282 526.651,46.7477 527.703,45.5758 
  528.755,44.4134 529.808,43.2612 530.86,42.12 531.912,40.9904 532.964,39.8732 534.017,38.7691 535.069,37.6787 536.121,36.6029 537.173,35.5421 538.226,34.4973 
  539.278,33.4689 540.33,32.4577 541.382,31.4642 542.435,30.4892 543.487,29.5332 544.539,28.5969 545.591,27.6807 546.643,26.7855 547.696,25.9115 548.748,25.0596 
  549.8,24.2301 550.852,23.4236 551.905,22.6406 552.957,21.8817 554.009,21.1472 555.061,20.4377 556.114,19.7536 557.166,19.0954 558.218,18.4634 559.27,17.858 
  560.323,17.2798 561.375,16.7289 562.427,16.2058 563.479,15.7108 564.531,15.2442 565.584,14.8063 566.636,14.3974 567.688,14.0177 568.74,13.6675 569.793,13.347 
  570.845,13.0564 571.897,12.7959 572.949,12.5657 574.002,12.3659 575.054,12.1965 576.106,12.0579 577.158,11.9499 578.21,11.8728 579.263,11.8265 580.315,11.811 
  
  "/>
<polygon clip-path="url(#clip7300)" points="
55.25,242.535 580.315,242.535 580.315,145.144 55.25,145.144 
  " fill="#ffffff" fill-opacity="1"/>
<defs>
  <clipPath id="clip7303">
    <rect x="55" y="145" width="526" height="98"/>
  </clipPath>
</defs>
<polyline clip-path="url(#clip7303)" style="stroke:#000000; stroke-width:0.5; stroke-opacity:0.1; fill:none" points="
  55.25,242.535 55.25,145.144 
  "/>
<polyline clip-path="url(#clip7303)" style="stroke:#000000; stroke-width:0.5; stroke-opacity:0.1; fill:none" points="
  134.01,242.535 134.01,145.144 
  "/>
<polyline clip-path="url(#clip7303)" style="stroke:#000000; stroke-width:0.5; stroke-opacity:0.1; fill:none" points="
  212.77,242.535 212.77,145.144 
  "/>
<polyline clip-path="url(#clip7303)" style="stroke:#000000; stroke-width:0.5; stroke-opacity:0.1; fill:none" points="
  291.529,242.535 291.529,145.144 
  "/>
<polyline clip-path="url(#clip7303)" style="stroke:#000000; stroke-width:0.5; stroke-opacity:0.1; fill:none" points="
  370.289,242.535 370.289,145.144 
  "/>
<polyline clip-path="url(#clip7303)" style="stroke:#000000; stroke-width:0.5; stroke-opacity:0.1; fill:none" points="
  449.049,242.535 449.049,145.144 
  "/>
<polyline clip-path="url(#clip7303)" style="stroke:#000000; stroke-width:0.5; stroke-opacity:0.1; fill:none" points="
  527.808,242.535 527.808,145.144 
  "/>
<polyline clip-path="url(#clip7303)" style="stroke:#000000; stroke-width:0.5; stroke-opacity:0.1; fill:none" points="
  55.25,232.017 580.315,232.017 
  "/>
<polyline clip-path="url(#clip7303)" style="stroke:#000000; stroke-width:0.5; stroke-opacity:0.1; fill:none" points="
  55.25,219.291 580.315,219.291 
  "/>
<polyline clip-path="url(#clip7303)" style="stroke:#000000; stroke-width:0.5; stroke-opacity:0.1; fill:none" points="
  55.25,206.566 580.315,206.566 
  "/>
<polyline clip-path="url(#clip7303)" style="stroke:#000000; stroke-width:0.5; stroke-opacity:0.1; fill:none" points="
  55.25,193.84 580.315,193.84 
  "/>
<polyline clip-path="url(#clip7303)" style="stroke:#000000; stroke-width:0.5; stroke-opacity:0.1; fill:none" points="
  55.25,181.114 580.315,181.114 
  "/>
<polyline clip-path="url(#clip7303)" style="stroke:#000000; stroke-width:0.5; stroke-opacity:0.1; fill:none" points="
  55.25,168.388 580.315,168.388 
  "/>
<polyline clip-path="url(#clip7303)" style="stroke:#000000; stroke-width:0.5; stroke-opacity:0.1; fill:none" points="
  55.25,155.663 580.315,155.663 
  "/>
<polyline clip-path="url(#clip7300)" style="stroke:#000000; stroke-width:1; stroke-opacity:1; fill:none" points="
  55.25,242.535 580.315,242.535 
  "/>
<polyline clip-path="url(#clip7300)" style="stroke:#000000; stroke-width:1; stroke-opacity:1; fill:none" points="
  55.25,242.535 55.25,145.144 
  "/>
<polyline clip-path="url(#clip7300)" style="stroke:#000000; stroke-width:1; stroke-opacity:1; fill:none" points="
  55.25,242.535 55.25,241.074 
  "/>
<polyline clip-path="url(#clip7300)" style="stroke:#000000; stroke-width:1; stroke-opacity:1; fill:none" points="
  134.01,242.535 134.01,241.074 
  "/>
<polyline clip-path="url(#clip7300)" style="stroke:#000000; stroke-width:1; stroke-opacity:1; fill:none" points="
  212.77,242.535 212.77,241.074 
  "/>
<polyline clip-path="url(#clip7300)" style="stroke:#000000; stroke-width:1; stroke-opacity:1; fill:none" points="
  291.529,242.535 291.529,241.074 
  "/>
<polyline clip-path="url(#clip7300)" style="stroke:#000000; stroke-width:1; stroke-opacity:1; fill:none" points="
  370.289,242.535 370.289,241.074 
  "/>
<polyline clip-path="url(#clip7300)" style="stroke:#000000; stroke-width:1; stroke-opacity:1; fill:none" points="
  449.049,242.535 449.049,241.074 
  "/>
<polyline clip-path="url(#clip7300)" style="stroke:#000000; stroke-width:1; stroke-opacity:1; fill:none" points="
  527.808,242.535 527.808,241.074 
  "/>
<polyline clip-path="url(#clip7300)" style="stroke:#000000; stroke-width:1; stroke-opacity:1; fill:none" points="
  55.25,232.017 63.126,232.017 
  "/>
<polyline clip-path="url(#clip7300)" style="stroke:#000000; stroke-width:1; stroke-opacity:1; fill:none" points="
  55.25,219.291 63.126,219.291 
  "/>
<polyline clip-path="url(#clip7300)" style="stroke:#000000; stroke-width:1; stroke-opacity:1; fill:none" points="
  55.25,206.566 63.126,206.566 
  "/>
<polyline clip-path="url(#clip7300)" style="stroke:#000000; stroke-width:1; stroke-opacity:1; fill:none" points="
  55.25,193.84 63.126,193.84 
  "/>
<polyline clip-path="url(#clip7300)" style="stroke:#000000; stroke-width:1; stroke-opacity:1; fill:none" points="
  55.25,181.114 63.126,181.114 
  "/>
<polyline clip-path="url(#clip7300)" style="stroke:#000000; stroke-width:1; stroke-opacity:1; fill:none" points="
  55.25,168.388 63.126,168.388 
  "/>
<polyline clip-path="url(#clip7300)" style="stroke:#000000; stroke-width:1; stroke-opacity:1; fill:none" points="
  55.25,155.663 63.126,155.663 
  "/>
<g clip-path="url(#clip7300)">
<text style="fill:#000000; fill-opacity:1; font-family:Arial,Helvetica Neue,Helvetica,sans-serif; font-size:12; text-anchor:middle;" transform="rotate(0, 55.25, 256.335)" x="55.25" y="256.335">0.000</text>
</g>
<g clip-path="url(#clip7300)">
<text style="fill:#000000; fill-opacity:1; font-family:Arial,Helvetica Neue,Helvetica,sans-serif; font-size:12; text-anchor:middle;" transform="rotate(0, 134.01, 256.335)" x="134.01" y="256.335">0.002</text>
</g>
<g clip-path="url(#clip7300)">
<text style="fill:#000000; fill-opacity:1; font-family:Arial,Helvetica Neue,Helvetica,sans-serif; font-size:12; text-anchor:middle;" transform="rotate(0, 212.77, 256.335)" x="212.77" y="256.335">0.004</text>
</g>
<g clip-path="url(#clip7300)">
<text style="fill:#000000; fill-opacity:1; font-family:Arial,Helvetica Neue,Helvetica,sans-serif; font-size:12; text-anchor:middle;" transform="rotate(0, 291.529, 256.335)" x="291.529" y="256.335">0.006</text>
</g>
<g clip-path="url(#clip7300)">
<text style="fill:#000000; fill-opacity:1; font-family:Arial,Helvetica Neue,Helvetica,sans-serif; font-size:12; text-anchor:middle;" transform="rotate(0, 370.289, 256.335)" x="370.289" y="256.335">0.008</text>
</g>
<g clip-path="url(#clip7300)">
<text style="fill:#000000; fill-opacity:1; font-family:Arial,Helvetica Neue,Helvetica,sans-serif; font-size:12; text-anchor:middle;" transform="rotate(0, 449.049, 256.335)" x="449.049" y="256.335">0.010</text>
</g>
<g clip-path="url(#clip7300)">
<text style="fill:#000000; fill-opacity:1; font-family:Arial,Helvetica Neue,Helvetica,sans-serif; font-size:12; text-anchor:middle;" transform="rotate(0, 527.808, 256.335)" x="527.808" y="256.335">0.012</text>
</g>
<g clip-path="url(#clip7300)">
<text style="fill:#000000; fill-opacity:1; font-family:Arial,Helvetica Neue,Helvetica,sans-serif; font-size:12; text-anchor:end;" transform="rotate(0, 49.25, 236.517)" x="49.25" y="236.517">-0.3</text>
</g>
<g clip-path="url(#clip7300)">
<text style="fill:#000000; fill-opacity:1; font-family:Arial,Helvetica Neue,Helvetica,sans-serif; font-size:12; text-anchor:end;" transform="rotate(0, 49.25, 223.791)" x="49.25" y="223.791">-0.2</text>
</g>
<g clip-path="url(#clip7300)">
<text style="fill:#000000; fill-opacity:1; font-family:Arial,Helvetica Neue,Helvetica,sans-serif; font-size:12; text-anchor:end;" transform="rotate(0, 49.25, 211.066)" x="49.25" y="211.066">-0.1</text>
</g>
<g clip-path="url(#clip7300)">
<text style="fill:#000000; fill-opacity:1; font-family:Arial,Helvetica Neue,Helvetica,sans-serif; font-size:12; text-anchor:end;" transform="rotate(0, 49.25, 198.34)" x="49.25" y="198.34">0.0</text>
</g>
<g clip-path="url(#clip7300)">
<text style="fill:#000000; fill-opacity:1; font-family:Arial,Helvetica Neue,Helvetica,sans-serif; font-size:12; text-anchor:end;" transform="rotate(0, 49.25, 185.614)" x="49.25" y="185.614">0.1</text>
</g>
<g clip-path="url(#clip7300)">
<text style="fill:#000000; fill-opacity:1; font-family:Arial,Helvetica Neue,Helvetica,sans-serif; font-size:12; text-anchor:end;" transform="rotate(0, 49.25, 172.888)" x="49.25" y="172.888">0.2</text>
</g>
<g clip-path="url(#clip7300)">
<text style="fill:#000000; fill-opacity:1; font-family:Arial,Helvetica Neue,Helvetica,sans-serif; font-size:12; text-anchor:end;" transform="rotate(0, 49.25, 160.163)" x="49.25" y="160.163">0.3</text>
</g>
<g clip-path="url(#clip7300)">
<text style="fill:#000000; fill-opacity:1; font-family:Arial,Helvetica Neue,Helvetica,sans-serif; font-size:16; text-anchor:middle;" transform="rotate(-90, 14.4, 193.84)" x="14.4" y="193.84">Signal [V]</text>
</g>
<polyline clip-path="url(#clip7303)" style="stroke:#009af9; stroke-width:1; stroke-opacity:1; fill:none" points="
  55.25,145.144 56.3023,145.163 57.3545,145.212 58.4067,145.292 59.459,145.403 60.5112,145.545 61.5635,145.717 62.6157,145.92 63.6679,146.153 64.7202,146.416 
  65.7724,146.71 66.8246,147.033 67.8769,147.386 68.9291,147.769 69.9813,148.181 71.0336,148.621 72.0858,149.091 73.138,149.588 74.1903,150.114 75.2425,150.668 
  76.2947,151.249 77.347,151.856 78.3992,152.491 79.4514,153.152 80.5037,153.838 81.5559,154.55 82.6081,155.287 83.6604,156.048 84.7126,156.834 85.7648,157.642 
  86.8171,158.474 87.8693,159.328 88.9215,160.204 89.9738,161.101 91.026,162.02 92.0782,162.958 93.1305,163.916 94.1827,164.893 95.2349,165.888 96.2872,166.901 
  97.3394,167.931 98.3917,168.977 99.4439,170.039 100.496,171.117 101.548,172.208 102.601,173.314 103.653,174.432 104.705,175.563 105.757,176.705 106.81,177.858 
  107.862,179.022 108.914,180.194 109.966,181.376 111.018,182.565 112.071,183.761 113.123,184.964 114.175,186.173 115.227,187.386 116.28,188.603 117.332,189.824 
  118.384,191.048 119.436,192.273 120.489,193.499 121.541,194.725 122.593,195.951 123.645,197.175 124.698,198.397 125.75,199.617 126.802,200.832 127.854,202.043 
  128.906,203.25 129.959,204.45 131.011,205.643 132.063,206.829 133.115,208.006 134.168,209.175 135.22,210.334 136.272,211.483 137.324,212.62 138.377,213.745 
  139.429,214.858 140.481,215.957 141.533,217.043 142.585,218.113 143.638,219.169 144.69,220.208 145.742,221.23 146.794,222.236 147.847,223.223 148.899,224.191 
  149.951,225.14 151.003,226.07 152.056,226.979 153.108,227.867 154.16,228.733 155.212,229.577 156.265,230.399 157.317,231.197 158.369,231.972 159.421,232.723 
  160.473,233.448 161.526,234.149 162.578,234.824 163.63,235.473 164.682,236.096 165.735,236.692 166.787,237.261 167.839,237.802 168.891,238.316 169.944,238.801 
  170.996,239.258 172.048,239.686 173.1,240.084 174.153,240.454 175.205,240.794 176.257,241.104 177.309,241.384 178.361,241.634 179.414,241.854 180.466,242.043 
  181.518,242.202 182.57,242.33 183.623,242.427 184.675,242.494 185.727,242.529 186.779,242.534 187.832,242.508 188.884,242.451 189.936,242.363 190.988,242.244 
  192.041,242.095 193.093,241.915 194.145,241.705 195.197,241.464 196.249,241.193 197.302,240.892 198.354,240.561 199.406,240.201 200.458,239.811 201.511,239.392 
  202.563,238.944 203.615,238.468 204.667,237.963 205.72,237.43 206.772,236.87 207.824,236.282 208.876,235.667 209.928,235.026 210.981,234.359 212.033,233.666 
  213.085,232.948 214.137,232.205 215.19,231.437 216.242,230.646 217.294,229.832 218.346,228.994 219.399,228.135 220.451,227.253 221.503,226.351 222.555,225.428 
  223.608,224.484 224.66,223.522 225.712,222.54 226.764,221.541 227.816,220.523 228.869,219.489 229.921,218.439 230.973,217.373 232.025,216.292 233.078,215.197 
  234.13,214.088 235.182,212.966 236.234,211.833 237.287,210.687 238.339,209.532 239.391,208.366 240.443,207.191 241.496,206.008 242.548,204.816 243.6,203.618 
  244.652,202.414 245.704,201.204 246.757,199.99 247.809,198.772 248.861,197.55 249.913,196.326 250.966,195.101 252.018,193.875 253.07,192.649 254.122,191.423 
  255.175,190.199 256.227,188.978 257.279,187.759 258.331,186.544 259.383,185.334 260.436,184.13 261.488,182.931 262.54,181.74 263.592,180.556 264.645,179.38 
  265.697,178.214 266.749,177.058 267.801,175.912 268.854,174.778 269.906,173.655 270.958,172.546 272.01,171.45 273.063,170.368 274.115,169.301 275.167,168.25 
  276.219,167.215 277.271,166.197 278.324,165.196 279.376,164.213 280.428,163.25 281.48,162.305 282.533,161.381 283.585,160.477 284.637,159.595 285.689,158.734 
  286.742,157.895 287.794,157.079 288.846,156.287 289.898,155.518 290.951,154.774 292.003,154.054 293.055,153.36 294.107,152.691 295.159,152.048 296.212,151.432 
  297.264,150.843 298.316,150.281 299.368,149.747 300.421,149.24 301.473,148.762 302.525,148.313 303.577,147.892 304.63,147.5 305.682,147.138 306.734,146.806 
  307.786,146.503 308.839,146.231 309.891,145.988 310.943,145.776 311.995,145.594 313.047,145.443 314.1,145.323 315.152,145.233 316.204,145.175 317.256,145.147 
  318.309,145.15 319.361,145.184 320.413,145.248 321.465,145.344 322.518,145.47 323.57,145.627 324.622,145.815 325.674,146.033 326.726,146.281 327.779,146.559 
  328.831,146.868 329.883,147.206 330.935,147.574 331.988,147.971 333.04,148.397 334.092,148.852 335.144,149.336 336.197,149.848 337.249,150.387 338.301,150.955 
  339.353,151.549 340.406,152.17 341.458,152.818 342.51,153.492 343.562,154.191 344.614,154.916 345.667,155.665 346.719,156.438 347.771,157.235 348.823,158.055 
  349.876,158.898 350.928,159.763 351.98,160.65 353.032,161.558 354.085,162.486 355.137,163.434 356.189,164.402 357.241,165.388 358.294,166.392 359.346,167.414 
  360.398,168.452 361.45,169.506 362.502,170.576 363.555,171.661 364.607,172.759 365.659,173.871 366.711,174.996 367.764,176.133 368.816,177.28 369.868,178.439 
  370.92,179.607 371.973,180.784 373.025,181.969 374.077,183.162 375.129,184.362 376.182,185.568 377.234,186.779 378.286,187.994 379.338,189.213 380.39,190.436 
  381.443,191.66 382.495,192.885 383.547,194.112 384.599,195.338 385.652,196.563 386.704,197.786 387.756,199.007 388.808,200.225 389.861,201.438 390.913,202.647 
  391.965,203.85 393.017,205.047 394.069,206.237 395.122,207.419 396.174,208.592 397.226,209.756 398.278,210.91 399.331,212.053 400.383,213.184 401.435,214.303 
  402.487,215.409 403.54,216.502 404.592,217.58 405.644,218.643 406.696,219.69 407.749,220.721 408.801,221.735 409.853,222.731 410.905,223.709 411.957,224.668 
  413.01,225.608 414.062,226.527 415.114,227.425 416.166,228.303 417.219,229.158 418.271,229.991 419.323,230.801 420.375,231.588 421.428,232.35 422.48,233.089 
  423.532,233.802 424.584,234.49 425.637,235.152 426.689,235.788 427.741,236.398 428.793,236.98 429.845,237.535 430.898,238.063 431.95,238.562 433.002,239.033 
  434.054,239.475 435.107,239.889 436.159,240.273 437.211,240.627 438.263,240.953 439.316,241.248 440.368,241.513 441.42,241.748 442.472,241.952 443.525,242.126 
  444.577,242.27 445.629,242.382 446.681,242.464 447.733,242.515 448.786,242.535 449.838,242.525 450.89,242.483 451.942,242.411 452.995,242.307 454.047,242.173 
  455.099,242.009 456.151,241.814 457.204,241.588 458.256,241.332 459.308,241.046 460.36,240.73 461.412,240.385 462.465,240.01 463.517,239.605 464.569,239.172 
  465.621,238.709 466.674,238.219 467.726,237.7 468.778,237.153 469.83,236.579 470.883,235.978 471.935,235.35 472.987,234.696 474.039,234.016 475.092,233.31 
  476.144,232.579 477.196,231.824 478.248,231.045 479.3,230.242 480.353,229.416 481.405,228.567 482.457,227.697 483.509,226.805 484.562,225.892 485.614,224.959 
  486.666,224.005 487.718,223.033 488.771,222.043 489.823,221.034 490.875,220.008 491.927,218.966 492.98,217.908 494.032,216.834 495.084,215.746 496.136,214.644 
  497.188,213.529 498.241,212.401 499.293,211.261 500.345,210.111 501.397,208.95 502.45,207.78 503.502,206.6 504.554,205.413 505.606,204.218 506.659,203.017 
  507.711,201.81 508.763,200.598 509.815,199.381 510.867,198.161 511.92,196.938 512.972,195.714 514.024,194.488 515.076,193.262 516.129,192.036 517.181,190.811 
  518.233,189.588 519.285,188.368 520.338,187.151 521.39,185.939 522.442,184.731 523.494,183.53 524.547,182.335 525.599,181.147 526.651,179.967 527.703,178.796 
  528.755,177.635 529.808,176.483 530.86,175.343 531.912,174.215 532.964,173.099 534.017,171.996 535.069,170.907 536.121,169.833 537.173,168.774 538.226,167.73 
  539.278,166.704 540.33,165.694 541.382,164.702 542.435,163.729 543.487,162.775 544.539,161.841 545.591,160.926 546.643,160.033 547.696,159.161 548.748,158.312 
  549.8,157.484 550.852,156.68 551.905,155.899 552.957,155.143 554.009,154.411 555.061,153.704 556.114,153.022 557.166,152.366 558.218,151.737 559.27,151.134 
  560.323,150.558 561.375,150.01 562.427,149.49 563.479,148.998 564.531,148.534 565.584,148.099 566.636,147.693 567.688,147.316 568.74,146.968 569.793,146.651 
  570.845,146.363 571.897,146.106 572.949,145.878 574.002,145.681 575.054,145.515 576.106,145.379 577.158,145.274 578.21,145.2 579.263,145.157 580.315,145.144 
  
  "/>
<polygon clip-path="url(#clip7300)" points="
55.25,375.869 580.315,375.869 580.315,278.478 55.25,278.478 
  " fill="#ffffff" fill-opacity="1"/>
<defs>
  <clipPath id="clip7304">
    <rect x="55" y="278" width="526" height="98"/>
  </clipPath>
</defs>
<polyline clip-path="url(#clip7304)" style="stroke:#000000; stroke-width:0.5; stroke-opacity:0.1; fill:none" points="
  55.25,375.869 55.25,278.478 
  "/>
<polyline clip-path="url(#clip7304)" style="stroke:#000000; stroke-width:0.5; stroke-opacity:0.1; fill:none" points="
  134.01,375.869 134.01,278.478 
  "/>
<polyline clip-path="url(#clip7304)" style="stroke:#000000; stroke-width:0.5; stroke-opacity:0.1; fill:none" points="
  212.77,375.869 212.77,278.478 
  "/>
<polyline clip-path="url(#clip7304)" style="stroke:#000000; stroke-width:0.5; stroke-opacity:0.1; fill:none" points="
  291.529,375.869 291.529,278.478 
  "/>
<polyline clip-path="url(#clip7304)" style="stroke:#000000; stroke-width:0.5; stroke-opacity:0.1; fill:none" points="
  370.289,375.869 370.289,278.478 
  "/>
<polyline clip-path="url(#clip7304)" style="stroke:#000000; stroke-width:0.5; stroke-opacity:0.1; fill:none" points="
  449.049,375.869 449.049,278.478 
  "/>
<polyline clip-path="url(#clip7304)" style="stroke:#000000; stroke-width:0.5; stroke-opacity:0.1; fill:none" points="
  527.808,375.869 527.808,278.478 
  "/>
<polyline clip-path="url(#clip7304)" style="stroke:#000000; stroke-width:0.5; stroke-opacity:0.1; fill:none" points="
  55.25,375.869 580.315,375.869 
  "/>
<polyline clip-path="url(#clip7304)" style="stroke:#000000; stroke-width:0.5; stroke-opacity:0.1; fill:none" points="
  55.25,359.637 580.315,359.637 
  "/>
<polyline clip-path="url(#clip7304)" style="stroke:#000000; stroke-width:0.5; stroke-opacity:0.1; fill:none" points="
  55.25,343.405 580.315,343.405 
  "/>
<polyline clip-path="url(#clip7304)" style="stroke:#000000; stroke-width:0.5; stroke-opacity:0.1; fill:none" points="
  55.25,327.173 580.315,327.173 
  "/>
<polyline clip-path="url(#clip7304)" style="stroke:#000000; stroke-width:0.5; stroke-opacity:0.1; fill:none" points="
  55.25,310.941 580.315,310.941 
  "/>
<polyline clip-path="url(#clip7304)" style="stroke:#000000; stroke-width:0.5; stroke-opacity:0.1; fill:none" points="
  55.25,294.71 580.315,294.71 
  "/>
<polyline clip-path="url(#clip7304)" style="stroke:#000000; stroke-width:0.5; stroke-opacity:0.1; fill:none" points="
  55.25,278.478 580.315,278.478 
  "/>
<polyline clip-path="url(#clip7300)" style="stroke:#000000; stroke-width:1; stroke-opacity:1; fill:none" points="
  55.25,375.869 580.315,375.869 
  "/>
<polyline clip-path="url(#clip7300)" style="stroke:#000000; stroke-width:1; stroke-opacity:1; fill:none" points="
  55.25,375.869 55.25,278.478 
  "/>
<polyline clip-path="url(#clip7300)" style="stroke:#000000; stroke-width:1; stroke-opacity:1; fill:none" points="
  55.25,375.869 55.25,374.408 
  "/>
<polyline clip-path="url(#clip7300)" style="stroke:#000000; stroke-width:1; stroke-opacity:1; fill:none" points="
  134.01,375.869 134.01,374.408 
  "/>
<polyline clip-path="url(#clip7300)" style="stroke:#000000; stroke-width:1; stroke-opacity:1; fill:none" points="
  212.77,375.869 212.77,374.408 
  "/>
<polyline clip-path="url(#clip7300)" style="stroke:#000000; stroke-width:1; stroke-opacity:1; fill:none" points="
  291.529,375.869 291.529,374.408 
  "/>
<polyline clip-path="url(#clip7300)" style="stroke:#000000; stroke-width:1; stroke-opacity:1; fill:none" points="
  370.289,375.869 370.289,374.408 
  "/>
<polyline clip-path="url(#clip7300)" style="stroke:#000000; stroke-width:1; stroke-opacity:1; fill:none" points="
  449.049,375.869 449.049,374.408 
  "/>
<polyline clip-path="url(#clip7300)" style="stroke:#000000; stroke-width:1; stroke-opacity:1; fill:none" points="
  527.808,375.869 527.808,374.408 
  "/>
<polyline clip-path="url(#clip7300)" style="stroke:#000000; stroke-width:1; stroke-opacity:1; fill:none" points="
  55.25,375.869 63.126,375.869 
  "/>
<polyline clip-path="url(#clip7300)" style="stroke:#000000; stroke-width:1; stroke-opacity:1; fill:none" points="
  55.25,359.637 63.126,359.637 
  "/>
<polyline clip-path="url(#clip7300)" style="stroke:#000000; stroke-width:1; stroke-opacity:1; fill:none" points="
  55.25,343.405 63.126,343.405 
  "/>
<polyline clip-path="url(#clip7300)" style="stroke:#000000; stroke-width:1; stroke-opacity:1; fill:none" points="
  55.25,327.173 63.126,327.173 
  "/>
<polyline clip-path="url(#clip7300)" style="stroke:#000000; stroke-width:1; stroke-opacity:1; fill:none" points="
  55.25,310.941 63.126,310.941 
  "/>
<polyline clip-path="url(#clip7300)" style="stroke:#000000; stroke-width:1; stroke-opacity:1; fill:none" points="
  55.25,294.71 63.126,294.71 
  "/>
<polyline clip-path="url(#clip7300)" style="stroke:#000000; stroke-width:1; stroke-opacity:1; fill:none" points="
  55.25,278.478 63.126,278.478 
  "/>
<g clip-path="url(#clip7300)">
<text style="fill:#000000; fill-opacity:1; font-family:Arial,Helvetica Neue,Helvetica,sans-serif; font-size:12; text-anchor:middle;" transform="rotate(0, 55.25, 389.669)" x="55.25" y="389.669">0.000</text>
</g>
<g clip-path="url(#clip7300)">
<text style="fill:#000000; fill-opacity:1; font-family:Arial,Helvetica Neue,Helvetica,sans-serif; font-size:12; text-anchor:middle;" transform="rotate(0, 134.01, 389.669)" x="134.01" y="389.669">0.002</text>
</g>
<g clip-path="url(#clip7300)">
<text style="fill:#000000; fill-opacity:1; font-family:Arial,Helvetica Neue,Helvetica,sans-serif; font-size:12; text-anchor:middle;" transform="rotate(0, 212.77, 389.669)" x="212.77" y="389.669">0.004</text>
</g>
<g clip-path="url(#clip7300)">
<text style="fill:#000000; fill-opacity:1; font-family:Arial,Helvetica Neue,Helvetica,sans-serif; font-size:12; text-anchor:middle;" transform="rotate(0, 291.529, 389.669)" x="291.529" y="389.669">0.006</text>
</g>
<g clip-path="url(#clip7300)">
<text style="fill:#000000; fill-opacity:1; font-family:Arial,Helvetica Neue,Helvetica,sans-serif; font-size:12; text-anchor:middle;" transform="rotate(0, 370.289, 389.669)" x="370.289" y="389.669">0.008</text>
</g>
<g clip-path="url(#clip7300)">
<text style="fill:#000000; fill-opacity:1; font-family:Arial,Helvetica Neue,Helvetica,sans-serif; font-size:12; text-anchor:middle;" transform="rotate(0, 449.049, 389.669)" x="449.049" y="389.669">0.010</text>
</g>
<g clip-path="url(#clip7300)">
<text style="fill:#000000; fill-opacity:1; font-family:Arial,Helvetica Neue,Helvetica,sans-serif; font-size:12; text-anchor:middle;" transform="rotate(0, 527.808, 389.669)" x="527.808" y="389.669">0.012</text>
</g>
<g clip-path="url(#clip7300)">
<text style="fill:#000000; fill-opacity:1; font-family:Arial,Helvetica Neue,Helvetica,sans-serif; font-size:12; text-anchor:end;" transform="rotate(0, 49.25, 380.369)" x="49.25" y="380.369">-6</text>
</g>
<g clip-path="url(#clip7300)">
<text style="fill:#000000; fill-opacity:1; font-family:Arial,Helvetica Neue,Helvetica,sans-serif; font-size:12; text-anchor:end;" transform="rotate(0, 49.25, 364.137)" x="49.25" y="364.137">-4</text>
</g>
<g clip-path="url(#clip7300)">
<text style="fill:#000000; fill-opacity:1; font-family:Arial,Helvetica Neue,Helvetica,sans-serif; font-size:12; text-anchor:end;" transform="rotate(0, 49.25, 347.905)" x="49.25" y="347.905">-2</text>
</g>
<g clip-path="url(#clip7300)">
<text style="fill:#000000; fill-opacity:1; font-family:Arial,Helvetica Neue,Helvetica,sans-serif; font-size:12; text-anchor:end;" transform="rotate(0, 49.25, 331.673)" x="49.25" y="331.673">0</text>
</g>
<g clip-path="url(#clip7300)">
<text style="fill:#000000; fill-opacity:1; font-family:Arial,Helvetica Neue,Helvetica,sans-serif; font-size:12; text-anchor:end;" transform="rotate(0, 49.25, 315.441)" x="49.25" y="315.441">2</text>
</g>
<g clip-path="url(#clip7300)">
<text style="fill:#000000; fill-opacity:1; font-family:Arial,Helvetica Neue,Helvetica,sans-serif; font-size:12; text-anchor:end;" transform="rotate(0, 49.25, 299.21)" x="49.25" y="299.21">4</text>
</g>
<g clip-path="url(#clip7300)">
<text style="fill:#000000; fill-opacity:1; font-family:Arial,Helvetica Neue,Helvetica,sans-serif; font-size:12; text-anchor:end;" transform="rotate(0, 49.25, 282.978)" x="49.25" y="282.978">6</text>
</g>
<g clip-path="url(#clip7300)">
<text style="fill:#000000; fill-opacity:1; font-family:Arial,Helvetica Neue,Helvetica,sans-serif; font-size:16; text-anchor:middle;" transform="rotate(-90, 14.4, 327.173)" x="14.4" y="327.173">numeric signal []</text>
</g>
<polyline clip-path="url(#clip7304)" style="stroke:#009af9; stroke-width:1; stroke-opacity:1; fill:none" points="
  55.25,278.478 56.3023,278.478 57.3545,278.478 58.4067,278.478 59.459,278.478 60.5112,278.478 61.5635,278.478 62.6157,278.478 63.6679,278.478 64.7202,278.478 
  65.7724,278.478 66.8246,278.478 67.8769,278.478 68.9291,278.478 69.9813,278.478 71.0336,278.478 72.0858,278.478 73.138,278.478 74.1903,286.594 75.2425,286.594 
  76.2947,286.594 77.347,286.594 78.3992,286.594 79.4514,286.594 80.5037,286.594 81.5559,286.594 82.6081,286.594 83.6604,286.594 84.7126,286.594 85.7648,286.594 
  86.8171,294.71 87.8693,294.71 88.9215,294.71 89.9738,294.71 91.026,294.71 92.0782,294.71 93.1305,294.71 94.1827,294.71 95.2349,294.71 96.2872,302.825 
  97.3394,302.825 98.3917,302.825 99.4439,302.825 100.496,302.825 101.548,302.825 102.601,302.825 103.653,310.941 104.705,310.941 105.757,310.941 106.81,310.941 
  107.862,310.941 108.914,310.941 109.966,310.941 111.018,319.057 112.071,319.057 113.123,319.057 114.175,319.057 115.227,319.057 116.28,319.057 117.332,319.057 
  118.384,327.173 119.436,327.173 120.489,327.173 121.541,327.173 122.593,327.173 123.645,327.173 124.698,335.289 125.75,335.289 126.802,335.289 127.854,335.289 
  128.906,335.289 129.959,335.289 131.011,335.289 132.063,343.405 133.115,343.405 134.168,343.405 135.22,343.405 136.272,343.405 137.324,343.405 138.377,351.521 
  139.429,351.521 140.481,351.521 141.533,351.521 142.585,351.521 143.638,351.521 144.69,351.521 145.742,351.521 146.794,359.637 147.847,359.637 148.899,359.637 
  149.951,359.637 151.003,359.637 152.056,359.637 153.108,359.637 154.16,359.637 155.212,359.637 156.265,367.753 157.317,367.753 158.369,367.753 159.421,367.753 
  160.473,367.753 161.526,367.753 162.578,367.753 163.63,367.753 164.682,367.753 165.735,367.753 166.787,367.753 167.839,375.869 168.891,375.869 169.944,375.869 
  170.996,375.869 172.048,375.869 173.1,375.869 174.153,375.869 175.205,375.869 176.257,375.869 177.309,375.869 178.361,375.869 179.414,375.869 180.466,375.869 
  181.518,375.869 182.57,375.869 183.623,375.869 184.675,375.869 185.727,375.869 186.779,375.869 187.832,375.869 188.884,375.869 189.936,375.869 190.988,375.869 
  192.041,375.869 193.093,375.869 194.145,375.869 195.197,375.869 196.249,375.869 197.302,375.869 198.354,375.869 199.406,375.869 200.458,375.869 201.511,375.869 
  202.563,375.869 203.615,375.869 204.667,375.869 205.72,367.753 206.772,367.753 207.824,367.753 208.876,367.753 209.928,367.753 210.981,367.753 212.033,367.753 
  213.085,367.753 214.137,367.753 215.19,367.753 216.242,367.753 217.294,367.753 218.346,359.637 219.399,359.637 220.451,359.637 221.503,359.637 222.555,359.637 
  223.608,359.637 224.66,359.637 225.712,359.637 226.764,351.521 227.816,351.521 228.869,351.521 229.921,351.521 230.973,351.521 232.025,351.521 233.078,351.521 
  234.13,351.521 235.182,343.405 236.234,343.405 237.287,343.405 238.339,343.405 239.391,343.405 240.443,343.405 241.496,343.405 242.548,335.289 243.6,335.289 
  244.652,335.289 245.704,335.289 246.757,335.289 247.809,335.289 248.861,327.173 249.913,327.173 250.966,327.173 252.018,327.173 253.07,327.173 254.122,327.173 
  255.175,327.173 256.227,319.057 257.279,319.057 258.331,319.057 259.383,319.057 260.436,319.057 261.488,319.057 262.54,310.941 263.592,310.941 264.645,310.941 
  265.697,310.941 266.749,310.941 267.801,310.941 268.854,310.941 269.906,302.825 270.958,302.825 272.01,302.825 273.063,302.825 274.115,302.825 275.167,302.825 
  276.219,302.825 277.271,302.825 278.324,294.71 279.376,294.71 280.428,294.71 281.48,294.71 282.533,294.71 283.585,294.71 284.637,294.71 285.689,294.71 
  286.742,286.594 287.794,286.594 288.846,286.594 289.898,286.594 290.951,286.594 292.003,286.594 293.055,286.594 294.107,286.594 295.159,286.594 296.212,286.594 
  297.264,286.594 298.316,286.594 299.368,278.478 300.421,278.478 301.473,278.478 302.525,278.478 303.577,278.478 304.63,278.478 305.682,278.478 306.734,278.478 
  307.786,278.478 308.839,278.478 309.891,278.478 310.943,278.478 311.995,278.478 313.047,278.478 314.1,278.478 315.152,278.478 316.204,278.478 317.256,278.478 
  318.309,278.478 319.361,278.478 320.413,278.478 321.465,278.478 322.518,278.478 323.57,278.478 324.622,278.478 325.674,278.478 326.726,278.478 327.779,278.478 
  328.831,278.478 329.883,278.478 330.935,278.478 331.988,278.478 333.04,278.478 334.092,278.478 335.144,278.478 336.197,278.478 337.249,286.594 338.301,286.594 
  339.353,286.594 340.406,286.594 341.458,286.594 342.51,286.594 343.562,286.594 344.614,286.594 345.667,286.594 346.719,286.594 347.771,286.594 348.823,294.71 
  349.876,294.71 350.928,294.71 351.98,294.71 353.032,294.71 354.085,294.71 355.137,294.71 356.189,294.71 357.241,294.71 358.294,302.825 359.346,302.825 
  360.398,302.825 361.45,302.825 362.502,302.825 363.555,302.825 364.607,302.825 365.659,302.825 366.711,310.941 367.764,310.941 368.816,310.941 369.868,310.941 
  370.92,310.941 371.973,310.941 373.025,319.057 374.077,319.057 375.129,319.057 376.182,319.057 377.234,319.057 378.286,319.057 379.338,319.057 380.39,327.173 
  381.443,327.173 382.495,327.173 383.547,327.173 384.599,327.173 385.652,327.173 386.704,327.173 387.756,335.289 388.808,335.289 389.861,335.289 390.913,335.289 
  391.965,335.289 393.017,335.289 394.069,343.405 395.122,343.405 396.174,343.405 397.226,343.405 398.278,343.405 399.331,343.405 400.383,343.405 401.435,351.521 
  402.487,351.521 403.54,351.521 404.592,351.521 405.644,351.521 406.696,351.521 407.749,351.521 408.801,359.637 409.853,359.637 410.905,359.637 411.957,359.637 
  413.01,359.637 414.062,359.637 415.114,359.637 416.166,359.637 417.219,359.637 418.271,367.753 419.323,367.753 420.375,367.753 421.428,367.753 422.48,367.753 
  423.532,367.753 424.584,367.753 425.637,367.753 426.689,367.753 427.741,367.753 428.793,367.753 429.845,367.753 430.898,375.869 431.95,375.869 433.002,375.869 
  434.054,375.869 435.107,375.869 436.159,375.869 437.211,375.869 438.263,375.869 439.316,375.869 440.368,375.869 441.42,375.869 442.472,375.869 443.525,375.869 
  444.577,375.869 445.629,375.869 446.681,375.869 447.733,375.869 448.786,375.869 449.838,375.869 450.89,375.869 451.942,375.869 452.995,375.869 454.047,375.869 
  455.099,375.869 456.151,375.869 457.204,375.869 458.256,375.869 459.308,375.869 460.36,375.869 461.412,375.869 462.465,375.869 463.517,375.869 464.569,375.869 
  465.621,375.869 466.674,375.869 467.726,375.869 468.778,367.753 469.83,367.753 470.883,367.753 471.935,367.753 472.987,367.753 474.039,367.753 475.092,367.753 
  476.144,367.753 477.196,367.753 478.248,367.753 479.3,367.753 480.353,359.637 481.405,359.637 482.457,359.637 483.509,359.637 484.562,359.637 485.614,359.637 
  486.666,359.637 487.718,359.637 488.771,359.637 489.823,351.521 490.875,351.521 491.927,351.521 492.98,351.521 494.032,351.521 495.084,351.521 496.136,351.521 
  497.188,343.405 498.241,343.405 499.293,343.405 500.345,343.405 501.397,343.405 502.45,343.405 503.502,343.405 504.554,335.289 505.606,335.289 506.659,335.289 
  507.711,335.289 508.763,335.289 509.815,335.289 510.867,335.289 511.92,327.173 512.972,327.173 514.024,327.173 515.076,327.173 516.129,327.173 517.181,327.173 
  518.233,319.057 519.285,319.057 520.338,319.057 521.39,319.057 522.442,319.057 523.494,319.057 524.547,319.057 525.599,310.941 526.651,310.941 527.703,310.941 
  528.755,310.941 529.808,310.941 530.86,310.941 531.912,310.941 532.964,302.825 534.017,302.825 535.069,302.825 536.121,302.825 537.173,302.825 538.226,302.825 
  539.278,302.825 540.33,294.71 541.382,294.71 542.435,294.71 543.487,294.71 544.539,294.71 545.591,294.71 546.643,294.71 547.696,294.71 548.748,294.71 
  549.8,286.594 550.852,286.594 551.905,286.594 552.957,286.594 554.009,286.594 555.061,286.594 556.114,286.594 557.166,286.594 558.218,286.594 559.27,286.594 
  560.323,286.594 561.375,278.478 562.427,278.478 563.479,278.478 564.531,278.478 565.584,278.478 566.636,278.478 567.688,278.478 568.74,278.478 569.793,278.478 
  570.845,278.478 571.897,278.478 572.949,278.478 574.002,278.478 575.054,278.478 576.106,278.478 577.158,278.478 578.21,278.478 579.263,278.478 580.315,278.478 
  
  "/>
</svg>
